HIERARCHY
ROOT Hips
{
	OFFSET 0.000000 0.000000 0.000000
	CHANNELS 6 Xposition Yposition Zposition Zrotation Yrotation Xrotation 
	JOINT LowerBack
	{
		OFFSET 0.000000 0.000000 0.000000
		CHANNELS 3 Zrotation Yrotation Xrotation
		JOINT Spine
		{
			OFFSET 0.028270 2.035590 -0.193380
			CHANNELS 3 Zrotation Yrotation Xrotation
			JOINT Spine1
			{
				OFFSET 0.056720 2.048850 -0.042750
				CHANNELS 3 Zrotation Yrotation Xrotation
				JOINT Neck
				{
					OFFSET 0.000000 0.000000 0.000000
					CHANNELS 3 Zrotation Yrotation Xrotation
					JOINT Neck1
					{
						OFFSET -0.054170 1.746240 0.172020
						CHANNELS 3 Zrotation Yrotation Xrotation
						JOINT Head
						{
							OFFSET 0.104070 1.761360 -0.123970
							CHANNELS 3 Zrotation Yrotation Xrotation
							End Site
							{
								OFFSET 0.000000 0.000000 0.000000
							}
						}
					}
				}
				JOINT LeftShoulder
				{
					OFFSET 0.000000 0.000000 0.000000
					CHANNELS 3 Zrotation Yrotation Xrotation
					JOINT LeftArm
					{
						OFFSET 3.362410 1.200890 -0.311210
						CHANNELS 3 Zrotation Yrotation Xrotation
						JOINT LeftForeArm
						{
							OFFSET 4.983000 -0.000000 -0.000000
							CHANNELS 3 Zrotation Yrotation Xrotation
							JOINT LeftHand
							{
								OFFSET 3.483560 -0.000000 -0.000000
								CHANNELS 3 Zrotation Yrotation Xrotation
								JOINT LeftFingerBase
								{
									OFFSET 0.000000 0.000000 0.000000
									CHANNELS 3 Zrotation Yrotation Xrotation
									JOINT LeftHandIndex1
									{
										OFFSET 0.715260 -0.000000 -0.000000
										CHANNELS 3 Zrotation Yrotation Xrotation
										End Site
										{
											OFFSET 0.000000 0.000000 0.000000
										}
									}
								}
								JOINT LThumb
								{
									OFFSET 0.000000 0.000000 0.000000
									CHANNELS 3 Zrotation Yrotation Xrotation
									End Site
									{
										OFFSET 0.000000 0.000000 0.000000
									}
								}
							}
						}
					}
				}
				JOINT RightShoulder
				{
					OFFSET 0.000000 0.000000 0.000000
					CHANNELS 3 Zrotation Yrotation Xrotation
					JOINT RightArm
					{
						OFFSET -3.136600 1.374050 -0.404650
						CHANNELS 3 Zrotation Yrotation Xrotation
						JOINT RightForeArm
						{
							OFFSET -5.241900 -0.000000 -0.000000
							CHANNELS 3 Zrotation Yrotation Xrotation
							JOINT RightHand
							{
								OFFSET -3.444170 -0.000000 -0.000000
								CHANNELS 3 Zrotation Yrotation Xrotation
								JOINT RightFingerBase
								{
									OFFSET 0.000000 0.000000 0.000000
									CHANNELS 3 Zrotation Yrotation Xrotation
									JOINT RightHandIndex1
									{
										OFFSET -0.622530 -0.000000 -0.000000
										CHANNELS 3 Zrotation Yrotation Xrotation
										End Site
										{
											OFFSET 0.000000 0.000000 0.000000
										}
									}
								}
								JOINT RThumb
								{
									OFFSET 0.000000 0.000000 0.000000
									CHANNELS 3 Zrotation Yrotation Xrotation
									End Site
									{
										OFFSET 0.000000 0.000000 0.000000
									}
								}
							}
						}
					}
				}
			}
		}
	}
}
}
MOTION
Frames: 17
Frame Time: 0.008333
-1.979745 16.800606 0.314664 -146.863324 77.267673 -134.078876 -5.382183 1.269673 12.488378 -2.631513 1.481704 -0.418290 -8.142692 1.501059 0.355025 7.734743 5.418293 5.741454 -4.652407 -0.428617 2.908955 0.000000 0.000000 0.000000 -6.917414 3.902412 1.491777 -59.104207 12.700533 7.924327 -3.642774 -12.527583 -0.005139 0.585846 5.651458 0.031882 -0.056320 -0.082675 -0.000000 0.000000 0.000000 0.000000 0.000000 0.000000 0.000000 16.496221 5.702489 -2.836427 77.539912 31.616384 20.377131 1.856644 43.237335 0.002181 -1.110785 11.787460 -0.119315 0.027280 -0.228898 -0.000000 0.000000 0.000000 0.000000 0.000000 0.000000 0.000000 
-1.877367 16.822259 0.224460 -147.176812 77.088258 -134.542956 -5.194998 1.323116 12.510543 -2.594506 1.540799 -0.392118 -8.125587 1.559333 0.415931 7.211881 5.680296 5.893105 -4.713203 -0.431415 2.933863 0.000000 0.000000 0.000000 -7.252517 3.917328 1.465672 -58.997757 10.913849 7.245487 -3.599432 -12.268722 -0.003514 1.482560 5.631663 0.076223 -0.051423 -0.073206 -0.000000 0.000000 0.000000 0.000000 0.000000 0.000000 0.000000 16.140998 5.833413 -2.848145 77.472725 31.338976 19.741562 1.896643 42.182834 0.002632 -1.012699 11.555352 -0.106733 0.027506 -0.219100 -0.000000 0.000000 0.000000 0.000000 0.000000 0.000000 0.000000 
-1.775215 16.846741 0.132174 -147.494246 76.820886 -134.972426 -4.944196 1.368911 12.482149 -2.544874 1.592428 -0.371778 -8.113439 1.610164 0.493503 6.720939 5.908802 6.015243 -4.778790 -0.434000 2.952272 0.000000 0.000000 0.000000 -7.555864 3.962081 1.433739 -58.937247 9.065276 6.549222 -3.540521 -12.193696 -0.001760 2.524753 5.469374 0.124065 -0.045238 -0.064324 -0.000000 0.000000 0.000000 0.000000 0.000000 0.000000 0.000000 15.843631 5.918378 -2.840577 77.286504 31.055963 19.201708 1.949036 41.140261 0.003411 -0.747776 11.263717 -0.077253 0.026598 -0.208020 -0.000000 0.000000 0.000000 0.000000 0.000000 0.000000 0.000000 
-1.672976 16.873598 0.039162 -147.923431 76.463413 -135.475998 -4.658114 1.402096 12.408660 -2.488201 1.631066 -0.360340 -8.106936 1.647780 0.571659 6.279795 6.111629 6.119828 -4.845270 -0.436343 2.968062 0.000000 0.000000 0.000000 -7.818741 3.965474 1.400410 -58.921638 7.274432 5.862450 -3.471427 -12.392527 -0.000037 3.645325 5.161521 0.167805 -0.038281 -0.056792 -0.000000 0.000000 0.000000 0.000000 0.000000 0.000000 0.000000 15.609605 5.965305 -2.809811 76.997033 30.742704 18.724694 2.011991 40.123937 0.004410 -0.311087 10.923689 -0.032174 0.024372 -0.196026 -0.000000 0.000000 0.000000 0.000000 0.000000 0.000000 0.000000 
-1.570550 16.902532 -0.053366 -148.555055 76.014262 -136.144881 -4.365188 1.417923 12.300526 -2.430116 1.651527 -0.354217 -8.104993 1.667518 0.654576 5.900969 6.271758 6.196671 -4.910463 -0.438265 2.978524 0.000000 0.000000 0.000000 -8.022351 3.951932 1.365365 -58.950100 5.512371 5.288546 -3.396843 -12.859933 0.001516 4.774213 4.711048 0.199840 -0.031326 -0.050762 -0.000000 0.000000 0.000000 0.000000 0.000000 0.000000 0.000000 15.447199 5.956780 -2.760816 76.626377 30.417470 18.319098 2.084197 39.128096 0.005505 0.271221 10.561020 0.024002 0.021066 -0.183371 -0.000000 0.000000 0.000000 0.000000 0.000000 0.000000 0.000000 
-1.467934 16.933355 -0.144298 -149.445226 75.473277 -137.037296 -4.088589 1.412953 12.168050 -2.374924 1.650128 -0.352844 -8.106635 1.665772 0.736257 5.591516 6.388292 6.247650 -4.971320 -0.439678 2.984439 0.000000 0.000000 0.000000 -8.161166 3.900154 1.331328 -59.016595 3.808574 4.886283 -3.322717 -13.611436 0.002802 5.842709 4.144286 0.214869 -0.025290 -0.046209 -0.000000 0.000000 0.000000 0.000000 0.000000 0.000000 0.000000 15.354217 5.893068 -2.694685 76.194384 30.076493 17.963170 2.163007 38.153769 0.006566 0.965508 10.198318 0.086477 0.016929 -0.170457 -0.000000 0.000000 0.000000 0.000000 0.000000 0.000000 0.000000 
-1.365276 16.965958 -0.232871 -150.604890 74.840917 -138.168339 -3.842104 1.385387 12.019444 -2.324599 1.625014 -0.360957 -8.110386 1.639998 0.793766 5.352925 6.491828 6.295866 -5.023089 -0.440623 2.992750 0.000000 0.000000 0.000000 -8.240654 3.717078 1.306916 -59.109586 2.291105 4.652072 -3.253780 -14.707577 0.003785 6.790761 3.507347 0.211393 -0.020922 -0.043029 -0.000000 0.000000 0.000000 0.000000 0.000000 0.000000 0.000000 15.312444 5.808869 -2.606118 75.715847 29.671755 17.577231 2.244042 37.224269 0.007485 1.745756 9.840538 0.152051 0.012034 -0.157832 -0.000000 0.000000 0.000000 0.000000 0.000000 0.000000 0.000000 
-1.262762 17.000131 -0.318731 -152.002472 74.117005 -139.507983 -3.634006 1.334849 11.865703 -2.280656 1.576049 -0.372018 -8.115039 1.590782 0.842513 5.180573 6.554407 6.321154 -5.065816 -0.440930 2.997579 0.000000 0.000000 0.000000 -8.260161 3.477559 1.288354 -59.216921 0.836873 4.672395 -3.192857 -16.053364 0.004409 7.585563 2.834672 0.191117 -0.018926 -0.040290 -0.000000 0.000000 0.000000 0.000000 0.000000 0.000000 0.000000 15.320063 5.678106 -2.504386 75.209772 29.245612 17.195126 2.325823 36.314935 0.008196 2.541136 9.521915 0.214725 0.007151 -0.145758 -0.000000 0.000000 0.000000 0.000000 0.000000 0.000000 0.000000 
-1.160670 17.035720 -0.401879 -153.574615 73.302696 -140.996827 -3.461915 1.261972 11.714257 -2.242088 1.504135 -0.385792 -8.119630 1.518897 0.878239 5.066053 6.585010 6.327696 -5.097849 -0.440582 3.000094 0.000000 0.000000 0.000000 -8.232361 3.174039 1.278139 -59.326255 -0.556709 4.936973 -3.141868 -17.613237 0.004657 8.206164 2.164602 0.158342 -0.019646 -0.037253 -0.000000 0.000000 0.000000 0.000000 0.000000 0.000000 0.000000 15.360881 5.514192 -2.391128 74.686360 28.788795 16.788939 2.405009 35.429025 0.008675 3.302253 9.250995 0.271301 0.002685 -0.134594 0.000000 0.000000 0.000000 0.000000 0.000000 0.000000 0.000000 
-1.059243 17.072444 -0.482644 -155.241979 72.399536 -142.559826 -3.315396 1.169472 11.567722 -2.206207 1.412171 -0.405116 -8.122839 1.426670 0.889286 4.998225 6.604928 6.330507 -5.117315 -0.439664 3.004591 0.000000 0.000000 0.000000 -8.170772 2.760874 1.280632 -59.426618 -1.838041 5.393195 -3.099698 -19.379554 0.004547 8.645961 1.534284 0.118875 -0.022976 -0.033363 -0.000000 0.000000 0.000000 0.000000 0.000000 0.000000 0.000000 15.412437 5.344192 -2.264158 74.151986 28.271585 16.312976 2.478578 34.577079 0.008949 3.991175 9.027106 0.319979 -0.001090 -0.124703 -0.000000 0.000000 0.000000 0.000000 0.000000 0.000000 0.000000 
-0.958750 17.109939 -0.561624 -156.919564 71.410313 -144.115062 -3.180123 1.060084 11.428984 -2.170074 1.303050 -0.426609 -8.124530 1.317289 0.886038 4.964807 6.603718 6.320124 -5.125513 -0.438156 3.008044 0.000000 0.000000 0.000000 -8.088361 2.290910 1.292634 -59.512852 -3.094531 6.031746 -3.065805 -21.262589 0.004071 8.913831 0.959243 0.077317 -0.028733 -0.027896 -0.000000 0.000000 0.000000 0.000000 0.000000 0.000000 0.000000 15.466026 5.161131 -2.129489 73.611060 27.714754 15.787057 2.545229 33.748150 0.009065 4.562132 8.857355 0.358760 -0.003739 -0.116171 -0.000000 0.000000 0.000000 0.000000 0.000000 0.000000 0.000000 
-0.859392 17.147799 -0.639539 -158.533093 70.339541 -145.592101 -3.038925 0.937256 11.296936 -2.130174 1.180188 -0.450014 -8.124466 1.194082 0.870613 4.954182 6.585942 6.298615 -5.123265 -0.436129 3.010751 0.000000 0.000000 0.000000 -7.996883 1.778105 1.313217 -59.585103 -4.353376 6.808511 -3.038602 -23.210230 0.003256 9.024618 0.451262 0.037569 -0.036469 -0.020462 -0.000000 0.000000 0.000000 0.000000 0.000000 0.000000 0.000000 15.509881 4.973287 -1.989301 73.064208 27.116443 15.209217 2.603911 32.942813 0.009088 4.991990 8.736987 0.387046 -0.005091 -0.109050 0.000000 0.000000 0.000000 0.000000 0.000000 0.000000 0.000000 
-0.761331 17.185547 -0.717136 -160.025744 69.193504 -146.938105 -2.875385 0.804661 11.167522 -2.083247 1.047077 -0.477073 -8.122237 1.060190 0.840019 4.956609 6.562689 6.275135 -5.111490 -0.433730 3.015061 0.000000 0.000000 0.000000 -7.903790 1.208074 1.342290 -59.649800 -5.595396 7.657065 -3.014837 -25.200901 0.002162 8.995889 0.017415 0.002431 -0.045512 -0.010986 -0.000000 0.000000 0.000000 0.000000 0.000000 0.000000 0.000000 15.533552 4.794582 -1.842792 72.509326 26.463578 14.568863 2.654469 32.166461 0.009082 5.277137 8.653821 0.405036 -0.005153 -0.103318 0.000000 0.000000 0.000000 0.000000 0.000000 0.000000 0.000000 
-0.664614 17.222740 -0.795055 -161.362586 67.979646 -148.121009 -2.677402 0.665372 11.036603 -2.027234 0.906558 -0.507033 -8.118168 0.918524 0.800192 4.964873 6.531750 6.248849 -5.092342 -0.431061 3.020330 0.000000 0.000000 0.000000 -7.813217 0.606336 1.376613 -59.716416 -6.854717 8.544735 -2.992803 -27.187358 0.000847 8.851407 -0.344365 -0.026596 -0.055298 0.000561 -0.000000 0.000000 0.000000 0.000000 0.000000 0.000000 0.000000 15.535772 4.623773 -1.692417 71.944429 25.764497 13.882649 2.698002 31.416287 0.009090 5.422828 8.598537 0.413230 -0.003967 -0.098795 0.000000 0.000000 0.000000 0.000000 0.000000 0.000000 0.000000 
-0.569211 17.258954 -0.873726 -162.531134 66.706396 -149.130623 -2.438507 0.522066 10.899349 -1.961339 0.761058 -0.539606 -8.112761 0.771571 0.755811 4.974937 6.491181 6.220506 -5.068163 -0.428248 3.026368 0.000000 0.000000 0.000000 -7.725033 -0.009466 1.412889 -59.797147 -8.149953 9.444065 -2.970902 -29.136585 -0.000615 8.617200 -0.639217 -0.049216 -0.065300 0.014040 -0.000000 0.000000 0.000000 0.000000 0.000000 0.000000 0.000000 15.519619 4.458721 -1.539708 71.367090 25.026093 13.165683 2.736359 30.690444 0.009139 5.448614 8.559374 0.413028 -0.001682 -0.095241 0.000000 0.000000 0.000000 0.000000 0.000000 0.000000 0.000000 
-0.474966 17.293846 -0.953358 -163.538504 65.383113 -149.974861 -2.159345 0.376578 10.751874 -1.886298 0.612217 -0.573400 -8.106942 0.621268 0.714770 4.985609 6.436342 6.186825 -5.041208 -0.425367 3.031788 0.000000 0.000000 0.000000 -7.637626 -0.602548 1.447257 -59.902902 -9.524161 10.354832 -2.949590 -31.006068 -0.002158 8.322173 -0.876111 -0.066030 -0.075215 0.029277 -0.000000 0.000000 0.000000 0.000000 0.000000 0.000000 0.000000 15.491934 4.294103 -1.387879 70.776918 24.260942 12.434630 2.771789 29.986544 0.009235 5.384063 8.524736 0.406127 0.001472 -0.092356 0.000000 0.000000 0.000000 0.000000 0.000000 0.000000 0.000000 
-0.381682 17.327097 -1.034064 -164.400211 64.018041 -150.669866 -1.846101 0.230541 10.590714 -1.803951 0.461528 -0.608534 -8.101464 0.469173 0.678931 4.997858 6.368704 6.150844 -5.013114 -0.422528 3.037076 0.000000 0.000000 0.000000 -7.545846 -1.166424 1.477312 -60.044265 -10.977035 11.265567 -2.928174 -32.781499 -0.003713 7.993026 -1.062450 -0.077741 -0.084744 0.045967 0.000000 0.000000 0.000000 0.000000 0.000000 0.000000 0.000000 15.459097 4.130257 -1.237420 70.174158 23.471069 11.692636 2.806719 29.304406 0.009380 5.266887 8.483873 0.394929 0.005202 -0.089893 0.000000 0.000000 0.000000 0.000000 0.000000 0.000000 0.000000 
